<svg width="56" height="20" viewBox="0 0 56 20" fill="none" xmlns="http://www.w3.org/2000/svg">
<g clip-path="url(#clip0_0_12481)">
<mask id="mask0_0_12481" style="mask-type:luminance" maskUnits="userSpaceOnUse" x="0" y="0" width="56" height="20">
<path d="M0 0H55.6522V19.6353H0V0Z" fill="white"/>
</mask>
<g mask="url(#mask0_0_12481)">
<path d="M31.7958 11.4614V19.4017H35.0485V11.9483C35.0485 8.62867 39.5672 8.62328 39.5672 8.62328V5.39276C39.5672 5.39276 38.3038 5.44886 37.3056 5.6736C34.4749 6.31024 31.7958 7.7067 31.7958 11.4614ZM7.27596 5.2322C8.54294 5.2322 10.1262 5.94917 10.9883 7.20999C11.8807 6.06328 13.3484 5.28931 15.162 5.25992C17.4657 5.23041 20.3143 6.66424 20.3143 10.9647V19.3919H17.0608V10.9647C17.0608 9.531 16.024 8.5002 14.472 8.5002C12.9201 8.5002 11.8824 9.531 11.8824 10.9647V19.3919H8.62979V10.9647C8.62979 9.531 7.59394 8.5002 6.04017 8.5002C4.48651 8.5002 3.42115 9.531 3.42115 10.9647V19.3919H0V5.65935H3.42104V7.03877C4.34311 5.92146 5.69436 5.23231 7.27764 5.23231L7.27596 5.2322ZM27.7942 5.83417V19.402H24.4859V5.83417H27.7942ZM26.1397 3.67551C27.1596 3.67551 27.9865 2.85262 27.9865 1.83764C27.9865 0.822889 27.1596 0 26.1397 0C25.1198 0 24.293 0.822777 24.293 1.83776C24.293 2.85262 25.1198 3.67551 26.1397 3.67551ZM48.4004 5.20281C44.3952 5.20281 41.1487 8.43332 41.1487 12.4191C41.1487 16.4048 44.3952 19.6353 48.4004 19.6353C52.4058 19.6353 55.6522 16.4048 55.6522 12.4191C55.6522 8.43332 52.4058 5.20281 48.4004 5.20281ZM48.4004 16.3906C46.1335 16.3906 44.2948 14.5618 44.2948 12.305C44.2948 10.0481 46.1326 8.21935 48.4004 8.21935C50.6684 8.21935 52.5061 10.0481 52.5061 12.305C52.5061 14.5618 50.6684 16.3906 48.4004 16.3906Z" fill="#222428"/>
</g>
</g>
<defs>
<clipPath id="clip0_0_12481">
<rect width="55.6522" height="20" fill="white"/>
</clipPath>
</defs>
</svg>
