<svg width="24" height="24" viewBox="0 0 24 24" fill="none" xmlns="http://www.w3.org/2000/svg">
<path d="M11.1914 6.15953C11.526 4.93336 12.9263 4.57365 14.3445 4.94671L20.5711 6.24726C21.9893 6.62032 22.8677 7.91677 22.533 9.14293L19.9071 18.7638C19.5724 19.99 18.1515 20.6816 16.7332 20.3085L10.5274 18.6761C9.10918 18.303 8.23076 17.0066 8.56546 15.7804L11.1914 6.15953Z" fill="#F8A8FF"/>
<path fill-rule="evenodd" clip-rule="evenodd" d="M20.3691 6.98736L14.3719 5.74707C13.4264 5.49836 12.2705 5.56726 12.0473 6.38472L9.42141 16.0056C9.19829 16.8231 9.78392 17.6873 10.7294 17.9361L16.9352 19.5684C17.8807 19.8172 18.8281 19.3561 19.0512 18.5387L21.6771 8.91782C21.9002 8.10036 21.3146 7.23606 20.3691 6.98736ZM14.3445 4.94671C12.9263 4.57365 11.526 4.93338 11.1914 6.15956L8.56546 15.7804C8.23076 17.0066 9.10918 18.303 10.5274 18.6761L16.7332 20.3086C18.1515 20.6816 19.5724 19.99 19.9071 18.7638L22.533 9.14296C22.8677 7.9168 21.9893 6.62035 20.5711 6.24729L14.3445 4.94671Z" fill="black"/>
<path d="M8.19384 5.97589C8.41838 4.72573 9.77256 3.91519 11.2185 4.16549L17.5457 5.26073C18.9916 5.51103 19.9818 6.72738 19.7573 7.97753L17.9955 17.7865C17.7709 19.0366 16.4167 19.8471 14.9707 19.5968L8.64362 18.5017C7.19766 18.2513 6.2075 17.0349 6.43206 15.7848L8.19384 5.97589Z" fill="#85B8FF"/>
<path fill-rule="evenodd" clip-rule="evenodd" d="M17.4101 6.01527L11.083 4.92002C10.1191 4.75316 9.21626 5.29351 9.06655 6.12695L7.30478 15.9359C7.15507 16.7693 7.81516 17.5802 8.7791 17.7471L15.1062 18.8424C16.0702 19.0092 16.973 18.4688 17.1228 17.6354L18.8845 7.82647C19.0342 6.99304 18.3741 6.18213 17.4101 6.01527ZM11.2185 4.16549C9.77256 3.91519 8.41838 4.72573 8.19384 5.97589L6.43206 15.7848C6.2075 17.0349 7.19766 18.2513 8.64362 18.5017L14.9707 19.5968C16.4167 19.8471 17.7709 19.0366 17.9955 17.7865L19.7573 7.97753C19.9818 6.72738 18.9916 5.51103 17.5457 5.26073L11.2185 4.16549Z" fill="black"/>
<path d="M1.60419 6.25069C1.60419 4.98125 2.78902 3.95217 4.25059 3.95217L13.5675 3.95215C15.029 3.95215 16.4476 4.88545 16.4476 6.15487V16.0193C16.4476 17.2887 15.2627 18.5095 13.8011 18.5095H4.25059C2.78902 18.5095 1.60419 17.4803 1.60419 16.2109V6.25069Z" fill="#FFDD33"/>
<path fill-rule="evenodd" clip-rule="evenodd" d="M6.08037 9.85813L4.78162 7.10327H6.08037L8.3532 9.33339L6.08037 15.3678H4.78162L6.08037 9.85813ZM8.48311 9.33339L7.31425 7.10327H8.61298L10.8209 8.93984L8.61298 15.3678H7.31425L8.48311 9.33339ZM9.91222 7.10327L10.9512 8.87425L9.91222 15.3678H11.0811L13.289 8.48071L11.211 7.10327H9.91222Z" fill="#18191C"/>
<path fill-rule="evenodd" clip-rule="evenodd" d="M13.761 4.71849L4.29069 4.7185C3.30155 4.7185 2.49969 5.40455 2.49969 6.25084V16.2111C2.49969 17.0574 3.30155 17.7434 4.29069 17.7434H13.761C14.7502 17.7434 15.5521 17.0574 15.5521 16.2111V6.25084C15.5521 5.40454 14.7502 4.71849 13.761 4.71849ZM4.29069 3.95233C2.80106 3.9367 1.60419 4.94444 1.60419 6.25084V16.2111C1.60419 17.4805 2.74407 18.5489 4.29069 18.5096H13.761C15.2448 18.5096 16.4476 17.4805 16.4476 16.2111V6.19745C16.4796 4.88844 15.2448 3.95232 13.761 3.95232L4.29069 3.95233Z" fill="black"/>
</svg>
